<svg width="23" height="22" viewBox="0 0 23 22" fill="none" xmlns="http://www.w3.org/2000/svg">
<path d="M12.3214 19.4616H1.64286V7.07694H21.3571V11.5H23V7.07694C22.9996 6.60785 22.8263 6.15811 22.5183 5.82642C22.2103 5.49472 21.7927 5.30817 21.3571 5.3077H16.4286V1.76923C16.4281 1.30015 16.2549 0.850408 15.9469 0.518714C15.6389 0.18702 15.2213 0.000468384 14.7857 0H8.21429C7.77871 0.000468384 7.36109 0.18702 7.05309 0.518714C6.74509 0.850408 6.57186 1.30015 6.57143 1.76923V5.3077H1.64286C1.20728 5.30817 0.789663 5.49472 0.481662 5.82642C0.173661 6.15811 0.000434927 6.60785 0 7.07694V19.4616C0.000434927 19.9307 0.173661 20.3804 0.481662 20.7121C0.789663 21.0438 1.20728 21.2303 1.64286 21.2308H12.3214V19.4616ZM8.21429 1.76923H14.7857V5.3077H8.21429V1.76923Z" fill="black"/>
</svg>
