<svg width="24" height="23" viewBox="0 0 24 23" fill="none" xmlns="http://www.w3.org/2000/svg">
<path d="M13.7442 23H9.41749C9.1464 23 8.88344 22.9104 8.67221 22.746C8.46099 22.5816 8.3142 22.3523 8.25618 22.0961L7.77241 19.9295C7.12704 19.6559 6.5151 19.3138 5.94784 18.9095L3.7643 19.5822C3.50584 19.6619 3.22697 19.6537 2.97399 19.559C2.72101 19.4642 2.50915 19.2886 2.37358 19.0613L0.205494 15.4376C0.07135 15.2101 0.0209956 14.9452 0.0626694 14.6864C0.104343 14.4275 0.235577 14.19 0.434902 14.0128L2.12872 12.5177C2.05169 11.8405 2.05169 11.1572 2.12872 10.4799L0.434902 8.9884C0.235295 8.81104 0.103882 8.57334 0.0622017 8.31425C0.0205212 8.05516 0.0710457 7.79007 0.205494 7.5624L2.36883 3.93645C2.50439 3.70911 2.71626 3.53348 2.96924 3.43872C3.22221 3.34395 3.50109 3.33576 3.75954 3.4155L5.94308 4.08825C6.23311 3.88125 6.53503 3.68805 6.84645 3.51325C7.14718 3.34995 7.45623 3.2016 7.77241 3.06935L8.25737 0.90505C8.31511 0.648827 8.46162 0.419391 8.67262 0.254781C8.88362 0.0901713 9.14644 0.000275961 9.41749 0H13.7442C14.0152 0.000275961 14.278 0.0901713 14.489 0.254781C14.7 0.419391 14.8465 0.648827 14.9043 0.90505L15.394 3.0705C15.7268 3.2131 16.0525 3.37295 16.3675 3.5512C16.6611 3.71565 16.9452 3.8962 17.2186 4.09055L19.4033 3.4178C19.6616 3.33835 19.9402 3.3467 20.1929 3.44144C20.4456 3.53619 20.6573 3.71166 20.7928 3.93875L22.9562 7.5647C23.2319 8.03275 23.1368 8.625 22.7267 8.98955L21.0329 10.4845C21.11 11.1618 21.11 11.8451 21.0329 12.5223L22.7267 14.0174C23.1368 14.383 23.2319 14.9742 22.9562 15.4422L20.7928 19.0681C20.6573 19.2955 20.4454 19.4711 20.1924 19.5659C19.9394 19.6606 19.6606 19.6688 19.4021 19.5891L17.2186 18.9163C16.6517 19.3204 16.0402 19.6621 15.3952 19.9352L14.9043 22.0961C14.8463 22.3521 14.6997 22.5813 14.4887 22.7457C14.2777 22.91 14.015 22.9998 13.7442 23ZM11.5761 6.9C10.3151 6.9 9.10573 7.38464 8.21408 8.24731C7.32242 9.10998 6.82149 10.28 6.82149 11.5C6.82149 12.72 7.32242 13.89 8.21408 14.7527C9.10573 15.6154 10.3151 16.1 11.5761 16.1C12.8371 16.1 14.0464 15.6154 14.9381 14.7527C15.8297 13.89 16.3307 12.72 16.3307 11.5C16.3307 10.28 15.8297 9.10998 14.9381 8.24731C14.0464 7.38464 12.8371 6.9 11.5761 6.9Z" fill="black"/>
</svg>
